<svg xmlns="http://www.w3.org/2000/svg" x="0px" y="0px" viewBox="0 0 256 256" fill="white">
  <path d="M112.9,11.5c-16.4,6.1-22.5,22-21,52.2c1,22-1,29.7-11.8,44.5c-7.7,9.7-16.9,26.6-20.5,37.4C53,164,53.5,166,63.3,173.7C79.1,186.5,96,213.1,96,225.4c0,12.3-11.8,13.8-42.5,5.1c-15.4-4.1-18.9-7.7-18.9-17.9c0-7.2,5.1-17.4,11.8-23l11.3-9.7l-15.4,7.7c-12.3,5.6-15.4,10.2-15.4,24.1c0,15.9,1.5,17.4,29.7,26.1c27.6,9.2,30.7,9.2,47.6,1c17.4-8.2,50.2-6.7,56.3,3.1c5.1,8.2,18.4,4.6,43.5-11.8c13.8-8.7,25.1-16.9,25.1-18.4s-5.6-7.7-12.8-14.3c-9.2-8.7-12.8-9.7-12.8-4.1c0,4.1,3.6,8.7,7.7,10.2c4.1,2,7.7,5.1,7.7,7.2c0,6.1-45,27.1-50.7,23.5c-6.1-4.1-6.7-54.2,0-54.2c2.6,0,4.6,2,4.6,5.1c0,9.7,20.5,5.1,27.6-6.7c10.2-15.4,3.6-44.5-17.4-73.7c-10.7-14.8-17.4-31.2-20-49.1c-2-14.8-5.1-29.7-7.2-32.8C150.3,13.5,125.2,6.9,112.9,11.5z M146.7,59.1c0,3.6-1,3.1-3.1-1c-3.1-7.7-16.9-8.2-16.9-0.5c0,3.6,3.1,8.7,7.2,11.8c8.2,6.7,32.7,67,34.8,85.5c1,7.2-1,16.4-4.6,20.5c-3.1,4.1-6.7,12.8-7.7,20c-1,7.7-7.2,15.4-15.9,19.4c-17.9,8.7-41.4,4.1-37.4-7.2c1.5-4.1-3.6-12.8-12.3-21c-18.4-15.9-18.4-16.4-4.6-59.4c10.2-33.3,16.9-41.5,21.5-28.1c1.5,5.1,5.1,5.1,15.4-0.5c20-10.7,17.4-19.4-4.1-16.9c-13.8,1.5-17.9,0.5-17.9-6.1c0-4.6,2.6-8.2,5.1-8.2c3.1,0,10.2-5.6,16.4-12.8c8.2-9.7,12.3-11.3,17.9-7.2C144.1,50.4,147.2,56,146.7,59.1z"/>
</svg>
