<svg xmlns="http://www.w3.org/2000/svg" x="0px" y="0px" viewBox="0 0 256 256" fill="white">
  <path d="M61,130.9c0-1-0.5-1.9-1.4-2.4l-22.8-13.1c-0.4-0.2-0.8-0.3-1.3-0.4h-0.2c-0.4,0-0.9,0.1-1.3,0.4l-22.7,13.1c-0.8,0.5-1.4,1.4-1.4,2.4l0,35.3c0,0.5,0.3,0.9,0.7,1.2c0.4,0.3,0.9,0.3,1.4,0l13.5-7.7c0.9-0.5,1.4-1.4,1.4-2.4v-16.5c0-1,0.5-1.9,1.4-2.4l5.8-3.3c0.4-0.2,0.9-0.4,1.4-0.4c0.5,0,0.9,0.1,1.4,0.4l5.8,3.3c0.8,0.5,1.4,1.4,1.4,2.4v16.5c0,1,0.5,1.9,1.4,2.4l13.5,7.7c0.4,0.3,1,0.3,1.4,0c0.4-0.2,0.7-0.7,0.7-1.2L61,130.9"/>
  <path d="M167.5,149.2c0,0.2-0.1,0.5-0.3,0.6l-7.8,4.5c-0.2,0.1-0.5,0.1-0.7,0l-7.8-4.5c-0.2-0.1-0.3-0.4-0.3-0.6v-9c0-0.2,0.1-0.5,0.3-0.6l7.8-4.5c0.2-0.1,0.5-0.1,0.7,0l7.8,4.5c0.2,0.1,0.3,0.3,0.3,0.6V149.2 M169.6,82.4c-0.4-0.2-0.9-0.2-1.4,0c-0.4,0.2-0.7,0.7-0.7,1.2v34.9c0,0.3-0.2,0.7-0.5,0.8c-0.3,0.2-0.7,0.2-1,0l-5.7-3.3c-0.8-0.5-1.9-0.5-2.7,0l-22.8,13.1c-0.8,0.5-1.4,1.4-1.4,2.4v26.3c0,1,0.5,1.9,1.4,2.4l22.8,13.1c0.8,0.5,1.9,0.5,2.7,0l22.8-13.1c0.8-0.5,1.4-1.4,1.4-2.4V92.4c0-1-0.5-1.9-1.4-2.4L169.6,82.4z"/>
  <path d="M244.6,140c0.8-0.5,1.4-1.4,1.4-2.4v-6.4c0-1-0.5-1.9-1.4-2.4L222,115.7c-0.8-0.5-1.9-0.5-2.7,0l-22.8,13.1c-0.8,0.5-1.4,1.4-1.4,2.4v26.3c0,1,0.5,1.9,1.4,2.4l22.6,12.9c0.8,0.5,1.9,0.5,2.7,0l13.7-7.6c0.4-0.2,0.7-0.7,0.7-1.2c0-0.5-0.3-1-0.7-1.2l-22.9-13.1c-0.4-0.2-0.7-0.7-0.7-1.2v-8.2c0-0.5,0.3-0.9,0.7-1.2l7.1-4.1c0.4-0.2,0.9-0.2,1.4,0l7.1,4.1c0.4,0.2,0.7,0.7,0.7,1.2v6.5c0,0.5,0.3,0.9,0.7,1.2c0.4,0.2,0.9,0.2,1.4,0L244.6,140"/>
  <path d="M95.9,115.6c0.8-0.5,1.9-0.5,2.7,0l22.8,13.1c0.8,0.5,1.4,1.4,1.4,2.4v26.3c0,1-0.5,1.9-1.4,2.4l-22.8,13.1c-0.8,0.5-1.9,0.5-2.7,0l-22.8-13.1c-0.8-0.5-1.4-1.4-1.4-2.4v-26.3c0-1,0.5-1.9,1.4-2.4L95.9,115.6"/>
  <path d="M220.6,151l-5.9-3.4v-6.8l5.9-3.4l5.9,3.4v6.8L220.6,151z"/>
</svg>
