<svg xmlns="http://www.w3.org/2000/svg" x="0px" y="0px" viewBox="0 0 256 256" fill="none" stroke="white" stroke-width="10">
  <path fill="currentColor" d="M108.1,127.9c0,10.9,8.8,19.7,19.7,19.7c10.9,0,19.7-8.8,19.7-19.7c0-10.9-8.8-19.7-19.7-19.7C116.9,108.1,108.1,116.9,108.1,127.9L108.1,127.9z"/>
  <path d="M127.8,87.7c26.5,0,51.1,3.8,69.7,10.2c22.3,7.7,36.1,19.4,36.1,29.9c0,11-14.6,23.4-38.6,31.4c-18.2,6-42,9.2-67.2,9.2c-25.8,0-50.2-2.9-68.6-9.2C36,151.2,22,138.6,22,127.9c0-10.5,13.1-22.1,35.2-29.7C75.8,91.6,101.1,87.7,127.8,87.7z"/>
  <path d="M92.9,107.9c13.2-22.9,28.8-42.4,43.6-55.3c17.8-15.5,34.8-21.6,44-16.3c9.5,5.5,13,24.3,7.9,49.1c-3.9,18.7-13.1,41-25.6,62.8c-12.9,22.3-27.6,42-42.2,54.8c-18.5,16.2-36.3,22-45.7,16.6c-9.1-5.2-12.5-22.4-8.2-45.3C70.3,154.9,79.5,131.1,92.9,107.9z"/>
  <path d="M92.9,148.3c-13.3-22.9-22.3-46.1-26.1-65.4c-4.6-23.2-1.3-40.9,7.8-46.2c9.5-5.5,27.5,0.9,46.5,17.7c14.3,12.7,29,31.8,41.6,53.6c12.9,22.3,22.6,44.9,26.4,63.9c4.8,24.1,0.9,42.5-8.4,47.9c-9.1,5.3-25.7-0.3-43.4-15.5C122.3,191.3,106.3,171.4,92.9,148.3z"/>
</svg>
